<svg id="SvgjsSvg1001" width="288" height="288" xmlns="http://www.w3.org/2000/svg" version="1.1" xmlns:xlink="http://www.w3.org/1999/xlink" xmlns:svgjs="http://svgjs.com/svgjs"><defs id="SvgjsDefs1002"></defs><g id="SvgjsG1008"><svg xmlns="http://www.w3.org/2000/svg" data-name="Layer 1" viewBox="0 0 150 34" width="288" height="288"><path fill="#6db3c8" d="M146,0H3.73A3.73,3.73,0,0,0,0,3.73V30.27A3.73,3.73,0,0,0,3.73,34H146a4,4,0,0,0,4-4V4A4,4,0,0,0,146,0Zm3,30a3,3,0,0,1-3,3H3.73A2.74,2.74,0,0,1,1,30.27V3.73A2.74,2.74,0,0,1,3.73,1H146a3,3,0,0,1,3,3Z" class="color635bff svgShape"></path><path fill="#6db3c8" d="M17.07 11.24h-4.3V22h1.92V17.84h2.38c2.4 0 3.9-1.16 3.9-3.3S19.47 11.24 17.07 11.24zm-.1 5H14.69v-3.3H17c1.38 0 2.11.59 2.11 1.65S18.35 16.19 17 16.19zM25.1 14a3.77 3.77 0 00-3.8 4.09 3.81 3.81 0 107.59 0A3.76 3.76 0 0025.1 14zm0 6.67c-1.22 0-2-1-2-2.58s.76-2.58 2-2.58 2 1 2 2.58S26.31 20.66 25.1 20.66z" class="color635bff svgShape"></path><polygon fill="#6db3c8" points="36.78 19.35 35.37 14.13 33.89 14.13 32.49 19.35 31.07 14.13 29.22 14.13 31.59 22.01 33.15 22.01 34.59 16.85 36.03 22.01 37.59 22.01 39.96 14.13 38.18 14.13 36.78 19.35" class="color635bff svgShape"></polygon><path fill="#6db3c8" d="M44 14a3.83 3.83 0 00-3.75 4.09 3.79 3.79 0 003.83 4.09A3.47 3.47 0 0047.49 20L46 19.38a1.78 1.78 0 01-1.83 1.26A2.12 2.12 0 0142 18.47h5.52v-.6C47.54 15.71 46.32 14 44 14zm-1.93 3.13A1.92 1.92 0 0144 15.5a1.56 1.56 0 011.69 1.62zM50.69 15.3V14.13h-1.8V22h1.8V17.87a1.89 1.89 0 012-2 4.68 4.68 0 01.66 0v-1.8c-.14 0-.3 0-.51 0A2.29 2.29 0 0050.69 15.3zM57.48 14a3.83 3.83 0 00-3.75 4.09 3.79 3.79 0 003.83 4.09A3.47 3.47 0 0060.93 20l-1.54-.59a1.78 1.78 0 01-1.83 1.26 2.12 2.12 0 01-2.1-2.17H61v-.6C61 15.71 59.76 14 57.48 14zm-1.93 3.13a1.92 1.92 0 011.92-1.62 1.56 1.56 0 011.69 1.62zM67.56 15a2.85 2.85 0 00-2.26-1c-2.21 0-3.47 1.85-3.47 4.09s1.26 4.09 3.47 4.09a2.82 2.82 0 002.26-1V22h1.8V11.24h-1.8zm0 3.35a2 2 0 01-2 2.28c-1.31 0-2-1-2-2.52s.7-2.52 2-2.52c1.11 0 2 .81 2 2.29zM79.31 14A2.88 2.88 0 0077 15V11.24h-1.8V22H77v-.83a2.86 2.86 0 002.27 1c2.2 0 3.46-1.86 3.46-4.09S81.51 14 79.31 14zM79 20.6a2 2 0 01-2-2.28v-.47c0-1.48.84-2.29 2-2.29 1.3 0 2 1 2 2.52S80.25 20.6 79 20.6zM86.93 19.66L85 14.13H83.1L86 21.72l-.3.74a1 1 0 01-1.14.79 4.12 4.12 0 01-.6 0v1.51a4.62 4.62 0 00.73.05 2.67 2.67 0 002.78-2l3.24-8.62H88.82zM125 12.43a3 3 0 00-2.13.87l-.14-.69h-2.39V25.53l2.72-.59V21.81a3 3 0 001.93.7c1.94 0 3.72-1.59 3.72-5.11C128.71 14.18 126.91 12.43 125 12.43zm-.65 7.63a1.61 1.61 0 01-1.28-.52l0-4.11a1.64 1.64 0 011.3-.55c1 0 1.68 1.13 1.68 2.58S125.36 20.06 124.35 20.06zM133.73 12.43c-2.62 0-4.21 2.26-4.21 5.11 0 3.37 1.88 5.08 4.56 5.08a6.12 6.12 0 003-.73V19.64a5.79 5.79 0 01-2.7.62c-1.08 0-2-.39-2.14-1.7h5.38c0-.15 0-.74 0-1C137.71 14.69 136.35 12.43 133.73 12.43zm-1.47 4.07c0-1.26.77-1.79 1.45-1.79s1.4.53 1.4 1.79zM113 13.36l-.17-.82h-2.32v9.71h2.68V15.67a1.87 1.87 0 012.05-.58V12.54A1.8 1.8 0 00113 13.36zM99.46 15.46c0-.44.36-.61.93-.61a5.9 5.9 0 012.7.72V12.94a7 7 0 00-2.7-.51c-2.21 0-3.68 1.18-3.68 3.16 0 3.1 4.14 2.6 4.14 3.93 0 .52-.44.69-1 .69a6.78 6.78 0 01-3-.9V22a7.38 7.38 0 003 .64c2.26 0 3.82-1.15 3.82-3.16C103.62 16.12 99.46 16.72 99.46 15.46zM107.28 10.24l-2.65.58v8.93a2.77 2.77 0 002.82 2.87 4.16 4.16 0 001.91-.37V20c-.35.15-2.06.66-2.06-1V15h2.06V12.66h-2.06z" class="color635bff svgShape"></path><polygon fill="#6db3c8" points="116.25 11.7 118.98 11.13 118.98 8.97 116.25 9.54 116.25 11.7" class="color635bff svgShape"></polygon><rect width="2.73" height="9.64" x="116.25" y="12.61" fill="#6db3c8" class="color635bff svgShape"></rect></svg></g></svg>